<?xml version="1.0" encoding="UTF-8" standalone="no"?><!DOCTYPE svg PUBLIC "-//W3C//DTD SVG 1.1//EN" "http://www.w3.org/Graphics/SVG/1.1/DTD/svg11.dtd"><svg width="100%" height="100%" viewBox="0 0 1066 374" version="1.1" xmlns="http://www.w3.org/2000/svg" xmlns:xlink="http://www.w3.org/1999/xlink" xml:space="preserve" xmlns:serif="http://www.serif.com/" style="fill-rule:evenodd;clip-rule:evenodd;stroke-linejoin:round;stroke-miterlimit:2;"><path d="M561.653,8.846l-54.579,120.608l-24.809,0l-52.229,-120.608l27.421,-0l38.563,92.354l38.475,-92.354l27.158,-0" style="fill:#f1f1f2;fill-rule:nonzero;"/><rect x="578.095" y="8.846" width="23.068" height="120.608" style="fill:#f1f1f2;"/><path d="M628.486,124.392l0,-20.242c12.479,4.5 26.579,6.746 42.304,6.746c19.092,-0 28.642,-6.183 28.642,-18.554c0,-8.996 -5.862,-13.496 -17.583,-13.496l-19.5,-0c-25.475,-0 -38.213,-11.242 -38.213,-33.733c0,-24.742 18.134,-37.113 54.404,-37.113c13.925,0 27.13,1.971 39.609,5.904l-0,20.242c-12.479,-4.496 -25.684,-6.746 -39.609,-6.746c-20.891,0 -31.337,5.904 -31.337,17.713c-0,8.995 5.05,13.491 15.146,13.491l19.5,0c27.1,0 40.65,11.246 40.65,33.738c-0,25.304 -17.238,37.954 -51.709,37.954c-15.725,-0 -29.825,-1.967 -42.304,-5.904" style="fill:#f1f1f2;fill-rule:nonzero;"/><rect x="745.474" y="8.846" width="23.068" height="120.608" style="fill:#f1f1f2;"/><path d="M856.19,110.9c25.071,0 37.605,-14.029 37.605,-42.087c-0,-27.609 -12.534,-41.413 -37.605,-41.413c-25.708,0 -38.562,13.804 -38.562,41.413c-0,28.058 12.854,42.087 38.562,42.087Zm-62.5,-41.579c0,-40.879 20.834,-61.317 62.5,-61.317c41.03,0 61.542,20.438 61.542,61.317c0,40.65 -20.512,60.975 -61.542,60.975c-39.812,-0 -60.645,-20.325 -62.5,-60.975" style="fill:#f1f1f2;fill-rule:nonzero;"/><path d="M942.882,129.454l0,-120.608l23.071,-0l65.721,87.883l-0,-87.883l22.191,-0l0,120.608l-23.062,0l-65.721,-89.737l0,89.737l-22.2,0" style="fill:#f1f1f2;fill-rule:nonzero;"/><path d="M465.645,364.267l-0,-78.563l12.908,0l28.846,65.542l28.291,-65.542l12.359,0l-0,78.563l-9.063,-0l0,-64.442l-27.908,64.442l-8.021,-0l-28.346,-64.442l0,64.442l-9.066,-0" style="fill:#f1f1f2;fill-rule:nonzero;"/><path d="M674.353,285.704l-0,8.242l-41.204,-0l-0,26.371l39.279,-0l-0,8.237l-39.279,0l-0,27.471l42.029,0l-0,8.242l-52.192,-0l0,-78.563l51.367,0" style="fill:#f1f1f2;fill-rule:nonzero;"/><path d="M775.386,356.025c19.229,0 28.842,-11.058 28.842,-33.183c-0,-19.263 -9.613,-28.896 -28.842,-28.896l-18.404,-0l0,62.079l18.404,0Zm-28.566,8.242l-0,-78.563l28.566,0c26,0 39.004,12.379 39.004,37.138c0,27.616 -13.004,41.425 -39.004,41.425l-28.566,-0" style="fill:#f1f1f2;fill-rule:nonzero;"/><rect x="887.128" y="285.704" width="10.163" height="78.563" style="fill:#f1f1f2;"/><path d="M976.457,364.267l-10.546,-0l33.346,-78.563l11.263,0l33.508,78.563l-11.263,-0l-10.162,-24.721l-25.983,-0l2.8,-8.242l19.779,0l-14.667,-35.6l-28.075,68.563" style="fill:#f1f1f2;fill-rule:nonzero;"/><path d="M174.095,98.65c-0,-0 56.837,-98.488 59.995,-98.65l-119.825,0c1.992,0.138 59.83,98.65 59.83,98.65" style="fill:#72ccd2;fill-rule:nonzero;"/><path d="M238.557,268.767c0,-0 -44.575,41.283 -60.487,55.52c-1.188,1.067 -2.388,1.788 -3.184,1.788c-0.787,-0 -1.596,-0.721 -2.783,-1.788c-15.525,-14.237 -61.683,-55.887 -61.683,-55.887l-2.771,101.458c-0,1.509 -0.109,2.425 -0.3,3.175l133.65,0c-0.025,-0.221 -0.063,-0.421 -0.063,-0.666l-2.379,-103.6" style="fill:#72ccd2;fill-rule:nonzero;"/><path d="M337.924,45.333c1.225,-2.929 2.216,-6.037 6.746,-12.808c4.516,-6.763 5.079,-20.175 1.912,-19.425c-1.617,-8.842 -3.579,-4.833 -9.525,15.958c-5.95,20.779 -38.067,50.888 -48.792,59.629c-10.754,8.755 -35.087,26.717 -56.225,45.075c-17.983,15.621 -24.02,22.496 -28.304,27.721c-2.362,-0.362 -6.325,-1.171 -11.904,-1.929c-3.617,-5.446 -10.292,-9.154 -18.012,-9.154c-7.73,-0 -14.396,3.708 -18.009,9.158c-3.112,0.421 -5.691,0.85 -7.8,1.221c-4.262,-5.15 -10.546,-12.087 -27.729,-27.017c-21.125,-18.358 -45.458,-36.32 -56.221,-45.075c-10.729,-8.741 -42.846,-38.85 -48.796,-59.629c-5.95,-20.791 -7.912,-24.8 -9.508,-15.958c-3.183,-0.75 -2.625,12.662 1.9,19.425c4.538,6.771 5.525,9.879 6.758,12.808c-9.279,-9.583 -15.766,-13.796 -14.175,-8.354c1.588,5.438 12.871,14.875 14.346,16.846c-9.604,-6.504 -12.641,-4.75 -9.983,-1.696c2.658,3.058 8.392,9.754 11.737,12.442c-5.062,-0.509 -6.575,2.054 8.78,14.683c-7.567,-1.054 -5.342,1.788 0.554,6.667c-2.6,2.15 -2.559,4.375 12.804,10.058c15.367,5.671 18.617,7.496 18.887,8.946c0.292,1.45 1.796,2.65 2.775,3.158c0.98,0.5 4.521,3.192 0.538,3.863c-3.996,0.679 -14.408,2.546 -3.604,9.175c-2.384,5.533 0.283,7.654 3.375,9.466c-1.504,5.455 1.808,7.78 4.279,8.267c0.883,5.883 1.95,8.808 5.95,7.6c-1.025,6.338 0.125,6.513 3.825,4.725c-0.038,6.217 2.175,6.779 4.937,5.621c-0.8,4.608 1.8,5.829 4.484,4.596c-0.563,4.683 1.85,4.525 4.841,3.729c-0.6,6.133 2.592,7 5.784,5.212c-0.488,5.05 1.237,5.45 5.579,4.255c0.267,6.954 3.15,4.854 5.637,4.333c0.1,4.842 4.35,3.579 6.571,1.758c0.484,5.075 4.042,5.084 6.55,4.271c1.2,2.371 4.909,2.138 6.954,1.996l0,4.537c0.663,0.63 1.321,1.438 1.88,1.984c1.204,1.191 3.591,2.25 5.329,2.437c1.746,0.2 1.437,6.334 6.521,5.475c-7.184,3.571 -15.967,8.004 -23.367,11.563c-0,-0 -13.204,3.421 -11.104,5.037c-0.067,0.021 -0.125,0.059 -0.196,0.075c-7.467,2.975 -7.575,4.513 -5.867,6.754c1.721,2.242 4.838,2.925 5.763,3.08c-1.65,5.137 1.066,8.045 6.596,9.362c2.804,0.15 4.137,1.042 4.5,2.708c0.358,1.655 4.708,4.559 8.808,4.571c4.104,0.017 6.246,1.159 6.708,2.917c0.454,1.762 7.563,4.104 11.95,3.208c1.434,-0.291 2.375,-0.408 3.121,-0.396c13.579,10.721 25.546,20.338 30.767,24.93c4.675,-4.325 15.458,-13.705 28.121,-24.384c4.395,0.371 10.441,-1.733 10.862,-3.358c0.467,-1.758 2.604,-2.9 6.7,-2.917c4.108,-0.012 8.463,-2.916 8.813,-4.571c0.358,-1.666 1.7,-2.558 4.491,-2.708c5.538,-1.317 8.263,-4.225 6.6,-9.362c0.934,-0.155 4.042,-0.838 5.763,-3.08c1.566,-2.058 1.591,-3.52 -4.117,-6.025c3.4,-2.683 -15.679,-7.125 -15.679,-7.125c-6.792,-3.291 -14.388,-7.12 -20.738,-10.279c5.096,0.859 4.792,-5.275 6.521,-5.475c1.746,-0.187 4.134,-1.246 5.342,-2.437c0.946,-0.942 2.208,-2.65 3.254,-2.846l1.529,0.629c-0.054,-1.596 -0.725,-4.4 0.85,-4.362c1.575,0.037 6.479,0.854 7.875,-1.938c2.513,0.813 6.063,0.804 6.563,-4.271c2.212,1.821 6.471,3.084 6.558,-1.758c2.496,0.521 5.367,2.621 5.646,-4.333c4.337,1.195 6.058,0.795 5.567,-4.255c3.2,1.788 6.404,0.921 5.795,-5.212c2.996,0.796 5.405,0.954 4.83,-3.729c2.695,1.233 5.304,0.012 4.491,-4.596c2.775,1.158 4.984,0.596 4.946,-5.621c3.688,1.788 4.85,1.613 3.813,-4.725c4.008,1.208 5.079,-1.717 5.95,-7.6c2.479,-0.487 5.787,-2.812 4.291,-8.267c3.088,-1.812 5.746,-3.933 3.367,-9.466c10.812,-6.629 0.392,-8.496 -3.6,-9.175c-3.988,-0.671 -0.438,-3.363 0.529,-3.863c0.988,-0.508 2.488,-1.708 2.775,-3.158c0.275,-1.45 3.533,-3.275 18.904,-8.946c15.35,-5.683 15.396,-7.908 12.792,-10.058c5.904,-4.879 8.121,-7.721 0.554,-6.667c15.358,-12.629 13.838,-15.192 8.783,-14.683c3.338,-2.688 9.071,-9.384 11.73,-12.442c2.658,-3.054 -0.367,-4.808 -9.984,1.696c1.496,-1.971 12.759,-11.408 14.35,-16.846c1.584,-5.442 -4.904,-1.229 -14.162,8.354" style="fill:#f15e24;fill-rule:nonzero;"/><rect x="369.003" y="0.304" width="32.776" height="373.442" style="fill:#72ccd2;"/><path d="M444.036,265.683l0,-120.608l23.938,-0l42.216,91.512l41.35,-91.512l23.067,-0l0,120.608l-21.325,0l0,-84.004l-33.775,84.004l-19.671,0l-34.475,-84.004l0,84.004l-21.325,0" style="fill:#f1f1f2;fill-rule:nonzero;"/><path d="M611.553,265.683l-23.675,0l52.837,-120.608l24.809,-0l53.971,120.608l-24.809,0l-14.191,-32.891l-41.346,-0l7.921,-19.4l25.07,-0l-19.587,-45.292l-41,97.583" style="fill:#f1f1f2;fill-rule:nonzero;"/><path d="M843.407,145.075l-53.1,56.258l58.671,64.35l-31.946,0l-48.137,-56.341l-0,-14.505l46.308,-49.762l28.204,-0Zm-110.637,-0l23.068,-0l-0,120.608l-23.068,0l-0,-120.608Z" style="fill:#f1f1f2;fill-rule:nonzero;"/><path d="M940.94,145.075l0,19.229l-62.325,0l0,30.367l59.363,-0l-0,19.987l-59.625,0l-0,31.625l63.804,0l0,19.4l-86.437,0l-0,-120.608l85.22,-0" style="fill:#f1f1f2;fill-rule:nonzero;"/><path d="M961.524,265.512l-0,-120.441l56.583,-0c25.413,-0 38.129,10.771 38.129,32.304c0,14.562 -9.9,26.625 -29.687,36.183l39.433,52.121l-29.075,0l-37.867,-52.542l0,-10.208c22.055,-3.654 33.084,-11.946 33.084,-24.879c-0,-8.883 -5.171,-13.325 -15.5,-13.325l-31.596,-0l-0,100.787l-23.504,0" style="fill:#f1f1f2;fill-rule:nonzero;"/></svg>