<?xml version="1.0" encoding="UTF-8" standalone="no"?><!DOCTYPE svg PUBLIC "-//W3C//DTD SVG 1.1//EN" "http://www.w3.org/Graphics/SVG/1.1/DTD/svg11.dtd"><svg width="100%" height="100%" viewBox="0 0 369 391" version="1.1" xmlns="http://www.w3.org/2000/svg" xmlns:xlink="http://www.w3.org/1999/xlink" xml:space="preserve" xmlns:serif="http://www.serif.com/" style="fill-rule:evenodd;clip-rule:evenodd;stroke-linejoin:round;stroke-miterlimit:2;"><path d="M182.115,103.196c-0,-0 59.45,-103.025 62.758,-103.196l-125.342,0c2.088,0.146 62.584,103.196 62.584,103.196" style="fill:#71cbd2;fill-rule:nonzero;"/><path d="M249.548,281.146c-0,-0 -46.629,43.187 -63.275,58.083c-1.242,1.113 -2.496,1.863 -3.329,1.863c-0.825,-0 -1.667,-0.75 -2.913,-1.863c-16.237,-14.896 -64.525,-58.467 -64.525,-58.467l-2.9,106.134c0,1.579 -0.112,2.537 -0.312,3.321l139.808,-0c-0.029,-0.225 -0.067,-0.438 -0.067,-0.696l-2.487,-108.375" style="fill:#71cbd2;fill-rule:nonzero;"/><path d="M353.485,47.421c1.288,-3.063 2.325,-6.317 7.059,-13.396c4.725,-7.079 5.316,-21.108 2.004,-20.321c-1.696,-9.25 -3.746,-5.054 -9.967,16.696c-6.225,21.733 -39.816,53.229 -51.041,62.375c-11.246,9.154 -36.696,27.946 -58.813,47.146c-18.812,16.346 -25.125,23.533 -29.608,29c-2.471,-0.383 -6.617,-1.225 -12.45,-2.021c-3.788,-5.696 -10.767,-9.575 -18.846,-9.575c-8.083,0 -15.058,3.879 -18.838,9.579c-3.254,0.442 -5.954,0.896 -8.158,1.279c-4.458,-5.387 -11.029,-12.641 -29.004,-28.262c-22.104,-19.2 -47.554,-37.992 -58.813,-47.146c-11.22,-9.146 -44.82,-40.642 -51.041,-62.375c-6.225,-21.75 -8.275,-25.946 -9.95,-16.696c-3.329,-0.787 -2.746,13.242 1.991,20.321c4.742,7.079 5.78,10.333 7.071,13.396c-9.712,-10.025 -16.496,-14.433 -14.829,-8.738c1.658,5.688 13.463,15.559 15.008,17.621c-10.05,-6.804 -13.225,-4.966 -10.45,-1.775c2.784,3.2 8.78,10.209 12.28,13.021c-5.296,-0.537 -6.875,2.142 9.183,15.354c-7.913,-1.104 -5.583,1.871 0.583,6.975c-2.721,2.25 -2.675,4.575 13.392,10.521c16.079,5.929 19.471,7.842 19.758,9.358c0.304,1.517 1.875,2.771 2.904,3.3c1.021,0.525 4.73,3.342 0.559,4.046c-4.175,0.709 -15.071,2.663 -3.767,9.596c-2.492,5.788 0.296,8.004 3.529,9.9c-1.575,5.704 1.888,8.138 4.479,8.654c0.921,6.146 2.042,9.209 6.221,7.95c-1.071,6.629 0.134,6.809 4,4.938c-0.033,6.5 2.275,7.091 5.167,5.879c-0.838,4.821 1.883,6.104 4.683,4.808c-0.579,4.9 1.942,4.738 5.075,3.9c-0.629,6.417 2.704,7.325 6.046,5.454c-0.508,5.284 1.292,5.696 5.833,4.45c0.284,7.271 3.3,5.08 5.9,4.53c0.105,5.07 4.55,3.75 6.875,1.845c0.505,5.309 4.225,5.313 6.855,4.467c1.254,2.479 5.133,2.229 7.266,2.083l0,4.75c0.696,0.655 1.388,1.505 1.967,2.075c1.262,1.246 3.758,2.359 5.579,2.55c1.825,0.209 1.5,6.621 6.821,5.725c-7.513,3.734 -16.704,8.375 -24.442,12.1c0,0 -13.812,3.575 -11.616,5.263c-0.075,0.025 -0.138,0.062 -0.205,0.083c-7.812,3.113 -7.929,4.717 -6.137,7.063c1.8,2.346 5.054,3.062 6.029,3.221c-1.729,5.375 1.113,8.416 6.896,9.791c2.937,0.159 4.333,1.092 4.712,2.838c0.375,1.729 4.921,4.766 9.209,4.783c4.296,0.017 6.533,1.204 7.016,3.05c0.475,1.846 7.909,4.292 12.5,3.35c1.509,-0.3 2.484,-0.421 3.267,-0.408c14.208,11.212 26.725,21.271 32.183,26.075c4.892,-4.521 16.171,-14.338 29.421,-25.509c4.592,0.392 10.921,-1.812 11.354,-3.508c0.488,-1.846 2.73,-3.033 7.013,-3.05c4.296,-0.017 8.854,-3.054 9.217,-4.783c0.375,-1.746 1.783,-2.679 4.704,-2.838c5.787,-1.375 8.641,-4.416 6.9,-9.791c0.971,-0.159 4.237,-0.875 6.029,-3.221c1.637,-2.154 1.662,-3.679 -4.304,-6.3c3.554,-2.813 -16.404,-7.454 -16.404,-7.454c-7.105,-3.442 -15.05,-7.45 -21.696,-10.755c5.333,0.896 5.021,-5.516 6.825,-5.725c1.825,-0.191 4.325,-1.304 5.587,-2.55c0.992,-0.983 2.309,-2.775 3.404,-2.975l1.596,0.655c-0.054,-1.671 -0.754,-4.6 0.892,-4.563c1.654,0.038 6.779,0.896 8.242,-2.025c2.629,0.846 6.345,0.842 6.862,-4.467c2.313,1.905 6.767,3.225 6.863,-1.845c2.612,0.55 5.612,2.741 5.9,-4.53c4.541,1.246 6.341,0.834 5.829,-4.45c3.346,1.871 6.7,0.963 6.058,-5.454c3.138,0.838 5.654,1 5.054,-3.9c2.821,1.296 5.55,0.013 4.696,-4.808c2.904,1.212 5.217,0.621 5.183,-5.879c3.85,1.871 5.067,1.691 3.98,-4.938c4.191,1.259 5.316,-1.804 6.225,-7.95c2.595,-0.516 6.054,-2.95 4.491,-8.654c3.229,-1.896 6.009,-4.112 3.517,-9.9c11.317,-6.933 0.412,-8.887 -3.763,-9.596c-4.17,-0.704 -0.458,-3.521 0.559,-4.046c1.029,-0.529 2.6,-1.783 2.9,-3.3c0.287,-1.516 3.696,-3.429 19.771,-9.358c16.058,-5.946 16.108,-8.271 13.383,-10.521c6.175,-5.104 8.496,-8.079 0.579,-6.975c16.067,-13.212 14.475,-15.891 9.192,-15.354c3.487,-2.812 9.487,-9.821 12.271,-13.021c2.775,-3.191 -0.392,-5.029 -10.446,1.775c1.562,-2.062 13.341,-11.933 15.008,-17.621c1.654,-5.695 -5.133,-1.287 -14.817,8.738" style="fill:#f15f26;fill-rule:nonzero;"/></svg>